# xmcd CD database file
#
# Track frame offsets:
#	150
#	14150
#	28898
#	45245
#	60843
#	73623
#	93390
#	108498
#	122250
#	136895
#	152900
#	166023
#	178690
#	193198
#	204203
#	221948
#	237088
#	248985
#	265293
#	283038
#	296408
#
# Disc length: 4136 seconds
#
# Revision: 0
# Processed by: cddbd v1.5PL3 Copyright (c) Steve Scherf et al.
# Submitted via: CDex 1.60beta1
#
DISCID=2f102615
DTITLE=The Back Bay Ramblers - 'Leven Thirty Saturday Night
DYEAR=1995
DGENRE=Jazz
TTITLE0='Leven Thirty Saturday Night
TTITLE1=Longshoreman's Blues
TTITLE2=Jungle Blues
TTITLE3=Clarinet Spice
TTITLE4=Without You Sweetheart
TTITLE5=Stomp Miss Hannah
TTITLE6=The River And Me
TTITLE7=Good Feelin' Blues
TTITLE8=I Love You Because I Love You
TTITLE9=Down Among The Sugar Cane
TTITLE10=Happy Rhythm
TTITLE11=Broadway Rose
TTITLE12=Sweetest Melody
TTITLE13=Mess-A-Stomp
TTITLE14=You Can't Cheat A Cheater
TTITLE15=That Wonderful Something
TTITLE16=Lotta Sax Appeal
TTITLE17=Gotta Darn Good Reason Now
TTITLE18=You're In Kentucky As You're Born
TTITLE19=My Wonderful You
TTITLE20=I Wanna Go Back To Indiana
EXTD=YEAR: 1995
EXTT0=
EXTT1=
EXTT2=
EXTT3=
EXTT4=
EXTT5=
EXTT6=
EXTT7=
EXTT8=
EXTT9=
EXTT10=
EXTT11=
EXTT12=
EXTT13=
EXTT14=
EXTT15=
EXTT16=
EXTT17=
EXTT18=
EXTT19=
EXTT20=
PLAYORDER=
